<?xml version="1.0" encoding="utf-8"?>

<!DOCTYPE svg PUBLIC "-//W3C//DTD SVG 1.1//EN" "http://www.w3.org/Graphics/SVG/1.1/DTD/svg11.dtd">
<svg version="1.1" id="Layer_1" xmlns="http://www.w3.org/2000/svg" xmlns:xlink="http://www.w3.org/1999/xlink" x="0px" y="0px"
	 viewBox="0 0 1920 1168" enable-background="new 0 0 1920 1168" xml:space="preserve">
<path d="M1230.2,33.04c3.7201-0.84,7.55-1.87,11.4-1.51c4.1901,3.34,5.2101,8.81,6.24,13.76c1.8,5.79,1.23,11.91,1.6,17.88
	c0.53,0.27,1.5901,0.81,2.1201,1.08c3.1599,0.07,6.5299,0.02,9.3199,1.8c3.05,1.8,6.62,2,10.02,2.68
	c2.71,4.52,0.5699,9.92-0.9601,14.46c-0.34,2.39-2.8899,2.59-4.6699,3.41c0.13,3.97,1.46,8.23-0.8301,11.86
	c-0.99,0.34-1.97,0.68-2.9199,1.03c-1.0701,10.19-1.85,20.42-3.1801,30.59c-0.49,5.81-5.12,10.25-5.9399,15.94
	c-0.12,7.03-4.41,12.89-7.26,19.04c-1.61,2.56-2.59,6.7-6.4,6.21c0.3201,0.47,0.95,1.42,1.27,1.9c-0.84,1.07-1.6801,2.14-2.49,3.21
	c-2.02,5.48-5.14,10.46-7.54,15.77c1.76,1.04,3.5801,2.11,4.9301,3.7c0.37,0,1.11,0,1.48,0c0.9299-4.22,3.08-8,4.6-12.02
	c1.77-0.72,3.71-1.24,5.5601-0.33c5.58,2.14,12.1599,1.78,16.88,5.89c6.6799,3.56,13.5,7.22,19.1599,12.31
	c1.1901,2.86-0.2,5.97-1.34,8.64c-2.1899,5.32-5.33,10.19-7.54,15.5c-1.09,2.23,0.13,4.66,0.0801,6.98
	c-0.3101,2.15-1.8401,3.81-3.15,5.42c0.3099,3.35,0.6799,6.71,1.64,9.95c2.25,0.38,4.52,1.69,4.45,4.28
	c0.38,5.25,3.4,9.87,3.62,15.15c0.4,1.88,0.55,4.56,2.79,5.18c8.17,3.37,15.98,7.56,24.23,10.76c3.58,1.16,6.8199,3.85,10.74,3.66
	c2.14-2.81,3.38-6.58,6.9301-8.05c2.11-1.26,4.5399-0.63,6.76,0.01c0.13,2.5-0.1001,5-0.51,7.47c3.1,0.82,4.77,4.01,7.73,5.02
	c2.01-0.78,3.8199-2.52,6.14-2.18c1.8099,0.63,2.6,2.5,3.45,4.07c4.5601,0.43,8.37,3.32,12.83,4.26c-1.5,2.78-1.3799,5.92-1.11,8.95
	c0.38-0.07,1.15-0.23,1.54-0.31c1.5601,1.05,3.08,2.18,4.62,3.28c0.8-0.6,1.61-1.19,2.4401-1.78c1.6899,1.15,3.4099,2.31,5.12,3.48
	c-0.6001,0.97-1.1901,1.94-1.77,2.9c4.24,2.5,2.0399,8.15,1.03,11.95c-2.41,0.14-5,1.17-7.2101-0.23c-0.7999,1-1.63,1.97-2.27,3.06
	c2.1801,5.41,4.8201,10.97,4.14,16.99c-0.0399,3.18-3.1699,4.84-5.1799,6.8c0.6,2.19,1.21,4.38,1.8199,6.58
	c-1.79,0.71-3.61,1.32-5.4399,1.82c0.5499,4.35-4.65,9.61-0.24,12.99c-0.25,0.44-0.75,1.3-1,1.74l2.1599-0.91
	c0.14,1.29,0.27,2.58,0.41,3.88c0.62,0.21,1.87,0.61,2.5,0.82c-0.24,0.37-0.73,1.11-0.98,1.48c1.88,1.75,3.39,3.85,4.76,6.03
	c2.62,4.65,5.97,8.82,8.95,13.23c1.36,2.21,3.37,3.88,5.22,5.67c1.54,3.54,5.29,5.34,7.42,8.49c6.77,7.55,12.08,16.21,17.39,24.81
	c1.77,1.99,3.55,3.97,5.39,5.92c1.22-5.15,4.48-9.45,7.76-13.48c6.13-5.33,12.88-9.87,19.6599-14.34
	c5.9301-3.68,12.7301-5.37,19.26-7.61c5.03-1.85,10.38-2.58,15.7001-3.04c1.74-1.72,3.5699-4.15,6.34-3.88
	c3.5,0.26,7.02,1.18,10.13,2.86c2.9,1.61,2.8199,5.64,5.5,7.45c2.62,1.28,5.65,1.21,8.49,1.73c5.84,0.49,11.13,3.5,17.01,3.83
	c1.53,0.36,3.76-0.32,4.59,1.48c0.0601,2.65-1.2799,5.13-3.0499,7.03c-4.73,5.29-8.65,11.3-13.9,16.12
	c-2.51,2.53-5.34,4.82-7.26,7.85c-0.66,2.83-0.58,5.77-0.99,8.64c-0.78,6.67-3.55,12.86-4.96,19.38
	c-1.8,8.92-4.87,17.53-7.9801,26.06c-2.1399,5.38-5.1399,10.97-10.3099,13.97c-0.92,3.44-4.54,4.93-5.9301,8.1
	c-1.61-0.08-3.22-0.19-4.7799-0.27c0,1.69,0.0499,3.4,0.1399,5.11c11.02,14.46,22.38,28.71,32.04,44.14
	c3.49,5.87,8.2001,10.98,11.25,17.09l0.4501-0.37c8.83,14.19,20.6399,26.42,28.37,41.34c0.6699,1.88,3.0499,1.33,4.5699,0.97
	c4.4301-1.54,8.67-3.62,13.16-5.03c4.98-1.8701,10.36-2.14,15.4-3.79c7.5299-2.71,15.71-2.27,23.3199-4.69
	c10.86-1.75,21.9399-1.23,32.92-1.72c14.01-0.08,28.0599,0.84,41.8899,3.17c7.2201,1.18,14.7001,1.13,21.66,3.63
	c9,3.15,18.4601,4.87,27.3,8.48c-0.14,1.97,0.34,4.35-1.42,5.78c-4.39,4.53-10.16,7.31-15.49,10.55c-3.6,2.39-7.79,3.58-11.55,5.65
	c9.77,2.16,19.2101,5.59,28.9,8.1c10.8401,3.82,21.4701,8.31,31.87,13.22c16.65,9.1801,33.05,19.0601,47.65,31.32
	c12.42,10.5,24.51,21.59,34.28,34.68c6.73,9.48,14.66,18.07,20.83,27.96c4.76,6.65,7.76,14.32,11.63,21.49
	c3.59,7.35,8.22,14.2,10.9,21.99c3.96,8.75,5.8,18.22,8.6,27.3701c6.67,20.36,8.65,41.9,9.55,63.1899
	c-0.9301,14-0.98,28.09-3.61,41.92c-1.0801,9.63-4.8401,18.64-6.8501,28.07c-1.8199,7.94-4.8899,15.52-7.4199,23.25
	c-4.8201,10.37-10.34,20.39-15.79,30.43c-8.3099,15.1799-20.22,27.87-31.54,40.79c-5.47,6.09-12.1299,10.9099-18.3199,16.23
	c-7.65,6.71-16.51,11.7999-24.99,17.35c-8.88,5.86-18.36,10.75-28.04,15.12c-8.9299,3.97-18.4299,6.37-27.7999,9.0599
	c-9.61,2.4601-19.37,4.75-29.3301,4.9801c-13.26,1.25-26.5699,2.1499-39.89,2.5199c-9.5199-0.6-19.08-0.59-28.58-1.48
	c-8-1.6599-16.02-3.4099-23.76-6.0599c-11.97-3.79-24.5599-6.14-35.62-12.3201c-8.65-4.6499-18.25-7.25-26.72-12.26
	c-8.1901-4.1-15.1-10.1799-22.5701-15.37c-6.71-5.2799-14.12-9.74-20.0299-15.95c-12.88-12.8101-27.0901-24.58-37.42-39.6801
	c-6.17-8.21-11.85-16.7999-17.24-25.5399c-4.5-8.83-9.67-17.33-13.4301-26.52c-3.2999-7.91-7.26-15.58-9.6599-23.83
	c-3.78-11.97-6.5801-24.21-9.37-36.44c-1.5801-7.14-1.88-14.47-2.63-21.73c-7.75,5.23-14.42,11.86-21.9601,17.36
	c-5.8199,4.28-10.87,9.52-16.6599,13.83c-1.12,1.03-2.5701,0.12-3.79-0.11c-0.5601-4.3701-2.2-8.76-1.64-13.15
	c4.16-9.61,6.02-20.06,6.24-30.49c0.72-7-0.47-14-0.13-20.99c0.9601-10.95,2.29-21.86,3.52-32.78
	c0.85-7.25,3.4401-14.14,4.8101-21.28c2.0499-12.54,6.48-24.54,11.24-36.26c3.0199-8.49,7.4399-16.37,11.5299-24.36
	c4.99-8.9901,10.04-17.96,15.9501-26.38c-3.61-3.15-6.12-7.26-9.4-10.7c-1.79-1.9-3.54-3.84-4.97-6
	c-5.35-8.77-11.9-16.72-18.5601-24.51c-3.4299-3.87-5.5599-8.63-7.9199-13.17c-10.5-16.34-19.24-33.7-27.91-51.04
	c-2.24-5.7-4.74-11.27-7.13-16.9c-1.8101,3.73-3.53,7.53-6.01,10.88c-1.76,5.58-4.64,10.96-9.64,14.2599
	c-2.14,0.25-2.6899,2-2.87,3.8701c-1.47,1.7-3,4.71-5.5599,2.64c-1.7101,3.77-3.78,7.37-6.2101,10.71
	c-0.6,4.53,2.14,9.05,0.3101,13.45c-5.4601,16.99-12.3101,33.49-18.5901,50.19c-4.2799,11.85-6.72,24.4-12.49,35.68
	c-4.1799,8.61-7.25,17.71-11.74,26.17c-3.51,10.15-7.0699,20.29-10.75,30.39c-3.97,14.68-10.1499,28.63-14.9399,43.04
	c-2.21,10.33-6.62,19.94-11.78,29.1c6.04,5.42,9.66,12.97,15.0701,18.98c3.6299-5.89,7.24-11.79,11.33-17.38
	c7.96-11.2,14.96-23.05,22.9299-34.25c4.4701-5.59,7.14-12.73,12.8201-17.26c0.85-7.65,6.47-13.41,10.0699-19.87
	c1.01-2.46,4.05-1.93,6.02-1.08c3.51,1.56,8.03,3.14,8.73,7.51c-0.6,1.17-1.1699,2.34-1.73,3.54c0.62,0.3,1.85,0.9,2.46,1.21
	c0.3201,1.52,2.15,3.36,0.53,4.69c-4.08,4.17-5.4199,9.97-8.46,14.79c-4.7,7.68-8.88,15.68-13.78,23.24
	c-2.5499,4.39-5.79,8.48-7.34,13.38c3.7-1.32,5.59-5.05,8.1-7.82c4.3101-5.1,7.53-11.28,13.05-15.23
	c3.4399,1.42,7.1,2.54,10.11,4.82c1.33,1.66,1.77,3.84,2.5599,5.79c-1.2,2.46-2.5299,4.88-4.2999,6.98
	c-7.04,8.52-13.11,17.78-20.04,26.39c-6.17,7.71-11.1801,16.27-17.47,23.9c-1.92,2.28-3.4401,4.85-4.78,7.51
	c8.85,8.45,20.21,13.44,30.51,19.83c4.12,2.68,8.4301,5.08,12.9,7.15c11.86,5.6299,22.5699,13.3199,33.76,20.1299
	c4.2999,2.89,9.0499,5.45,12.36,9.55c2.88,5.79,3.9399,12.99,1.14,19.03c-2.26,2.73-5,5.11-8.05,6.9
	c-4.91,1.92-10.3099,2.13-15.52,2.09c-28.34-0.08-56.65,1.09-84.95,2.4c-27.02,0.22-53.98,2.62-81.01,2.12
	c-9.47-0.36-18.87,0.91-28.3201,1.31c5.4,8.35,12.04,15.86,17.41,24.2501c-0.24-3.4-0.6799-6.77-0.85-10.16
	c1.96-0.49,3.9301-0.97,5.91-1.41c1.52,6.55,1.8099,13.29,2.7899,19.9301c3.02,1.4399,5.99,3.08,9.28,3.89
	c2.9,0.5099,5.88,0.25,8.8301,0.2799c0.59,1.7001,1.1299,3.42,1.6899,5.1801c-1.77,2.5599-3.4301,5.65-6.54,6.76
	c-3.83,1.59-7.3199,3.8199-10.85,5.9299c-1.3099-0.9099-2.6-1.84-3.86-2.76c-2.83-0.8099-5.6899-1.49-8.46-2.45
	c-1.5701-0.27-1.48-2.0601-1.92-3.2c2-0.8101,4.04-1.55,6.11-2.2201c-6.7999-6.4099-13.4-13.0599-19.4299-20.2
	c-1.55-1.84-3.29-3.5-5.1101-5.05c-0.1499,3.5601-0.34,7.11-0.5299,10.67c1.6799,0.29,3.4199,0.66,5.13,1.03
	c-0.13,3.27-2.53,5.5399-4.0801,8.21c-1.5699-0.04-3.13-0.08-4.6799-0.11c-0.25-0.63-0.75-1.88-1-2.51c-1.01-0.3-2-0.58-2.98-0.84
	c-0.66-6.91-3.6901-13.27-6.6001-19.47c0.29-0.4701,0.88-1.41,1.17-1.88c-4.86-3.05-4.21-9.3801-5.88-14.1801
	c-4.64,1.61-9.67,2.88-14.28,0.44c-5.9299,2.51-12.5,2.2-18.7799,2.7c-12.39,0.99-24.8201,1.27-37.2401,1.32
	c-23.3099-0.97-46.65-0.27-69.97-1.01c-11.34-0.15-22.68-0.56-34.0099-0.3c-13.32-0.69-26.66-1.56-40-1.13
	c-16.63-0.01-33.25-0.03-49.87-0.02c-4.3701,0.02-8.7401-0.2-13.08-0.64c-4.72-0.57-9.57,0.06-14.17-1.33
	c-5.4301-1.09-10.6201-3.04-15.72-5.16c-1.83,0.74-3.64,1.5-5.48,2.17c-1.17-1.99-1.69-5.09-4.61-4.92
	c-7.88-1.13-13.59-7.53-17.3701-14.07c-16.2599-0.89-32.44-3.08-48.71-3.94c-5.01,2.96-10.82,0.72-16.17,0.11
	c-0.15-1.3-0.29-2.58-0.42-3.85c-3.76-3.72-5.59-8.78-8.71-12.96c-3.9301-5.35-3.95-12.3199-2.9-18.59
	c-2.04-2.09-3.84-4.41-6.07-6.28c-6.15-3.83-13.64-4.99-20.78-4.53c-7.2401,0.6-12.4301,7.9-19.96,6.77
	c-2.85-0.36-5.7-0.92-8.58-0.8701c-2.96,3.06-6.9,1.03-10.47,0.96c-2.04,0.98-3.7,2.66-5.85,3.41c-2.02-0.09-4-0.53-6.0099-0.46
	c-2.1,0.66-3.78,2.23-5.89,2.87c-2.41,0.23-4.7-0.94-7.1-0.77c-1.75,0.89-3.24,2.32-5.15,2.89c-2.64,0.23-5.27-0.17-7.89-0.37
	c-3.08,2.99-7.28,2.73-11.14,1.79c-2.93,1.15-5.18,3.89-8.65,3.74c-0.27,1.73-0.52,3.47-0.77,5.23
	c-10.99,0.09-21.98-0.34-32.96-0.17c-12.51,28.09-29.6,54.29-50.99,76.4399c-7.6,7.8101-16.15,14.61-24.33,21.78
	c-7.87,6.09-15.39,12.66-23.81,18c-8.67,6.22-18.69,10.08-28.11,14.96c-9.17,4.73-18.73,8.61-28.44,12.0801
	c-11.11,3.12-22.24,6.2899-33.62,8.2999c-15.32,2.1-30.77,2.6801-46.21,3c-13.71-0.39-27.48,0.35-41.13-1.37
	c-12.98-0.89-25.52-4.6-37.95-8.1899c-12.94-3.62-25.77-7.99-37.54-14.54c-15.47-7.75-30.19-17-43.8-27.6899
	c-5.4-4.76-11.56-8.63-16.51-13.89c-10.03-9.64-19.42-19.9601-27.76-31.1c-4.41-5.95-9.35-11.57-12.81-18.16
	c-11.81-19.58-22-40.27-28.76-62.15c-4.47-18.88-9.1-37.95-9.25-57.46c-0.93-10.35,0.66-20.68,0.6-31.04
	c0.4-8.7,1.08-17.39,1.46-26.1c1.81-16.4301,9.02-31.51,13.67-47.21c5.51-17.13,13.93-33.12,22.91-48.64
	c3.52-6.5,8.82-11.73,13.67-17.21c13.52-14.83,27.86-28.89,42.61-42.4901c3.38-2.96,6.74-6.0099,10.68-8.23
	c7.65-4.48,15.28-9.06,23.38-12.71c-10.29-2.79-20.59-6.33-29.33-12.58c-4.26,2.35-8.58,4.72-13.21,6.26
	c-7.53-0.76-14.48-4.2-21.86-5.69c-8.06,0.04-15.99,2.22-24.08,1.5699c-2.72,6.71-4.39,13.86-7.94,20.21
	c-3.77,7-7.05,14.23-10.35,21.45c-2.98,6.76-6.88,13.05-10.61,19.41c-4.17,6.34-7.75,13.09-12.57,18.98
	c-4.22-1.7-7.82-4.54-11.49-7.13c-7.15-5.2-14.48-10.13-21.45-15.57c-4.24-3.36-8.8-6.41-12.29-10.61
	c3.08-5.7401,6.57-11.23,9.83-16.86c5.39-8.8,11.73-16.96,17.47-25.5099c2.91-4.27,5.08-9.08,8.72-12.82
	c0.97-6.74,4.2-12.89,6.19-19.36c-2.32-0.5-5.8,0.6-7-2.09c-3.1-5.08-3.86-11.13-4.77-16.89c-1.19-6.94-0.99-14.54,2.67-20.75
	c1.41-0.02,2.82-0.02,4.23-0.02c-0.46-5.85-0.67-11.72-0.85-17.59c0.57-0.11,1.71-0.34,2.27-0.45c-0.27-3.42,0.25-6.78,0.87-10.12
	c-5-5.7-10.58-10.89-15.82-16.37c-1.62-1.81-1.59-4.42-2.19-6.65c4.85-1.74,9.97-2.53,15.05-3.21c2.87-0.47,5.35,1.36,8.09,1.8
	c1.96-0.01,3.91-0.28,5.86-0.47c-0.16,0.57-0.49,1.7-0.65,2.27c4.77,1.09,9.45,2.93,14.45,2.52c0.29-1.39-0.06-3.28,1.61-3.86
	c1.53,0.02,3.05,0.12,4.57,0.29c0.03-0.47,0.08-1.4,0.1-1.87c0.8,0.09,2.39,0.26,3.19,0.35c0.36-0.96,0.73-1.9,1.1-2.84
	c5.43-0.38,10.85-0.08,16.08,1.55c-0.36,1.77-0.72,3.54-1.08,5.32c4.13,0.53,8.4,0.68,12.28,2.35c3.54,1.52,7.45,1.8,11.06,3.1
	c3.57,1.5099,7.51,0.66,11.22,0.28c5.48-0.97,10.92-2.18,16.38-3.29c2.92-0.18,3.83-3.84,6.67-4.16c3.28-0.51,7.59-1.57,9.13,2.36
	c1.79-3,5.1-5.56,8.77-4.28c4.77,1.7,9.55-0.64,14.23-1.54c11.95-3.17,24.16-5.27,36.04-8.76c0.07-1.67,0.15-3.32,0.24-4.97
	c3.14-1.72,6.89-3.1,10.42-1.73c0.76,1.11,1.28,2.35,1.91,3.56c1.8-0.96,3.66-1.81,5.61-2.44c-2-5.61-3.43-11.66-2.26-17.61
	c1.67-9.01,4-18.98,11.95-24.58c10.27-6.05,22.58-5.07,34.01-6.02c20.74-0.19,41.52-0.02,62.17,2.09c16.87,1.91,33.9,1.87,50.73,4.2
	c14.39,1.16,28.35,4.91,42.26,8.59c9.08,2.89,17.5,7.43,25.8,12.04c6.51,3.68,12.82,7.87,17.88,13.46c1.75,0.25,3.97-0.41,5.35,1.06
	c4.59,4.53,8.02,10.07,12.31,14.87c2.9301,2.9,2.79,7.29,3.7401,11.04c7.83-2.77,16.25-3.63,24.49-2.6
	c6.5,1.39,13.01,3.07,19.11,5.75c7.28,3.91,13.01,10.19,17.41,17.09c3.58,5.93,9.34,10.02,14.54,14.41
	c6.7,4.95,14.18,8.77,21.78,12.12c11.49,3.91,23.18,8.07,35.45,8.3101c24.56,0.3799,49.27-3.17,72.53-11.14
	c8.24-3.48,16.72-6.35,24.78-10.27c7.08-3.06,13.57-7.39,20.91-9.87c7.31-2.6,14.36-5.97,21.87-7.98c4.61-0.37,9.7-0.74,13.78,1.89
	c1.43,0.04,2.89,0.09,4.35,0.14c1.91,2.24,4.02,4.44,4.94,7.31c1.65,3.99,1.1,8.38,1.18,12.58c2.49-1.3,1.9-4.6,2.82-6.87
	c2.98-8.91,7.73-17.4,14.71-23.8c8.15-9.05,18.92-14.94,28.86-21.74c11-7.11,22.04-14.14,33.11-21.14
	c14.03-9.35,28.96-17.22,43.45-25.82c15.41-9.41,31.45-17.72,47.1-26.71c4.08-2.81,7.95-6.11,12.66-7.85
	c3.82-1.3,6.67-4.29,10.14-6.24c9.89-5.68,19.9301-11.19,29.1-17.98c1.87-1.12,2.26-3.39,2.7001-5.34
	c0.61-3.8,1.3099-7.58,2.12-11.34c5.6499-1.12,8.64-6.81,13.88-8.74c4.0299-1.54,7.6899-4.04,11.95-4.97
	c2.8101-0.36,5.67-0.14,8.51-0.27c1.97-2.19,4.51-3.69,7.14-4.98c1.3199-0.33,2.64-0.65,3.96-1.1c0.91-3.11,1.77-6.25,3.4501-9.05
	c-9.1101-1.5-18.05,1.13-26.9501,2.55c-1.5499,1.45-3.0499,3.05-4.95,4.03c-3.15,0.44-5.8-1.74-8.8-1.99
	c-14.14,12.68-28.49,25.24-44.07,36.15c-3.79,2.75-9.22,3.21-13.25,0.79c-4.0699-3.88-4.74-9.82-5.8799-15.03
	c-0.61-6.04-3.1801-11.79-2.84-17.91c0.01-3.02-0.82-6.18,0.44-9.07c1.89-4.08,5.62-6.8,8.91-9.69
	c8.68-7.25,16.78-15.21,26.03-21.77c6.55-5.52,13.5801-10.43,20.39-15.62c2.38-1.64,4.9401-3.8,8.05-3.38
	c3.86-0.1,6.5,3.02,8.9399,5.54c0.5801,6.99,3.9501,13.34,4.63,20.31c0.3501,1.64,0.66,3.29,1,4.94
	c1.2101,3.45,0.29,7.06-0.2799,10.54c6.88-0.45,13.7699-0.16,20.6699-0.11c4.76,0.19,9.8301-2.37,14.3101,0.23
	c-0.12,1.45-0.22,2.92-0.3,4.39c2.54,0.48,5.01,1.3,7.36,2.41c0.62,3.47,0.99,6.98,0.88,10.52c4.27-0.92,7.6-3.86,11.1801-6.17
	c6.52-4.08,13.23-7.92,19.39-12.53c1.64-15.12,1.01-30.41,1.2999-45.61c0.2101-7.99-0.59-16.08,0.9401-23.98
	c1.4-17.3,1.13-34.71,2.96-51.97c0.2-3.06-0.98-5.98-1.01-9.02c-0.14-4.59,0.51-9.19,1.76-13.6c-1.86-4.25-4.04-9.16-1.99-13.75
	c0.85-2.9,3.26-4.82,5.54-6.62c3.6699,1.9,7.96-0.1,11.9199,0.34c1.4401,1.91,2.8,3.88,4.1901,5.85
	c1.5499,0.69,1.9399,2.37,2.6,3.78c0.3199,0.27,0.97,0.82,1.29,1.09c0.88-0.89,1.7799-1.77,2.71-2.64c-0.25-2.09-0.4-4.27-1.36-6.18
	c-1.53-1.56-3.71-2.26-5.4401-3.54c1.5701-0.02,3.0601,0.28,4.5,0.92c4.4801-0.26,8.77,1.34,13.25,1.31
	c3.1901-3.63,7.79-5.24,12.53-5.41c1.0601-1.21,2.0801-2.52,3.4401-3.44c2.08,0.03,4.12,0.45,6.2,0.66c1.0601,1.43,2,2.97,2.47,4.71
	c3.1,1.63,6.5701,2.12,10.02,2.37c2.99-4.99,5.22-10.38,7.73-15.6c0.67-0.2,2.01-0.62,2.67-0.82c-0.71-1.61-1.47-3.36-0.35-4.97
	c3.84-7.76,7.6899-15.83,14.36-21.61c3.71-5.57,5.8199-12.24,6.1-18.94c0.58-8.51,2.48-17.04,1.14-25.57
	c-0.66-0.12-1.99-0.35-2.65-0.47c0.6801-0.05,2.0601-0.14,2.74-0.19c-0.03-0.89-0.09-2.68-0.13-3.57
	c-1.51,0.19-3.3099,0.13-3.99,1.77c-5.3099,7.98-10.72,15.92-16.91,23.26c-4.38,5.05-8.1599,10.66-13.11,15.19
	c-3.0299,2.72-7.6699,2.06-11.0299,0.39c-2.8201-2.78-3.14-7.07-3.66-10.79c-1.52-14.64-4.3301-29.31-3.3201-44.08
	c-0.0299-4.13,3.0601-7.1,4.92-10.49c2.61-5.09,6.45-9.39,9.46-14.25c0.02-1.13,0.0601-2.26,0.12-3.4
	c0.5801-0.07,1.74-0.22,2.3101-0.29c1.55-2.04,3.33-3.9,5.26-5.58c0.16-0.47,0.48-1.4,0.63-1.86
	C1224.16,38.54,1225.85,33.93,1230.2,33.04 M1169.86,212.73c-0.92,5.88,1.8101,11.42,2.0701,17.23
	c0.5499,21.04-1.02,42.05-1.5701,63.07c-0.08,13.08-0.1,26.17-0.39,39.26c9.4601-3.08,18.76-6.8,27.77-11.01
	c-1.67-2.27-3.63-4.37-4.95-6.87c-1.03-3.04,1.3099-5.62,4.01-6.6c0.0699-1.29,0.1699-2.58,0.3099-3.86
	c2.88-1.46,4.74-4.27,7.6-5.77c0.3501-0.33,1.04-0.99,1.39-1.32c2.03-0.61,4.3101-0.83,6.01-2.24c-0.22-2.44-2.14-4.2-2.92-6.43
	c1.2201-2.44,2.79-4.68,4.01-7.13c2.1001-4.17,6.15-6.76,9.3301-10.03c-4.77-0.98-10.5601,0.6-14.29-3.24
	c-8.46-0.58-17.55-3.12-22.83-10.24c-3.92-4.1-5.9-9.98-4.8201-15.59c0.61-2.27-1.74-3.78-1.89-5.97
	c-3.6499-3.46-2.6899-8.53-2.62-13.05c-0.7899-1.03-1.59-2.06-2.36-3.08c0.39-1.97,0.8101-3.93,1.26-5.88
	C1173.28,213.54,1171.55,213.13,1169.86,212.73 M1263.21,242.62c-1.7,3.14-3.95,5.92-5.9099,8.87c-1.75,3.66-1.67,7.81-2.4501,11.73
	c4.9501,0.17,9.4601,2.3,14.02,4.03c0.38-0.96,0.77-1.92,1.1801-2.88c-0.5-0.46-1.51-1.38-2.02-1.84c-0.03-0.48-0.1-1.43-0.13-1.9
	c-2.8-2.4-2.53-6.49-3.88-9.67c0.46-0.2,1.38-0.62,1.84-0.82C1264.99,247.62,1264.13,245.11,1263.21,242.62 M1190.5601,343.46
	c-7.1001,2.07-13.8101,5.22-20.66,7.94c-1.7101,7.24-0.55,14.99-0.9401,22.44c0.52-0.49,1.55-1.47,2.0701-1.96
	c5.3199,1.87,9.75,5.53,13.65,9.51c1.08,0.6,2.1899,1.19,3.3199,1.78c0.33,0.3,0.98,0.91,1.3101,1.22
	c1,0.46,2.0199,0.92,3.0399,1.41c5.53,2.27,10.2001,5.94,15.03,9.38c1.74,0.9,3.4399,1.93,5.04,3.11
	c7.0299,3.29,12.96,8.44,18.8999,13.37c3.16,2.52,6.04,5.74,10.16,6.66c-3.0699-4.85-6.5499-9.67-7.25-15.58
	c1.03-1.19,2.13-2.35,3.05-3.65c-0.0901-2-1.22-3.7-2.0901-5.43c0.1901-0.44,0.55-1.31,0.7301-1.75
	c-0.0901-1.73-1.3301-4.07,0.5499-5.26c3.04-2.2,5.8401-4.68,8.52-7.3c0.42,0.03,1.24,0.11,1.65,0.15c0.09-0.53,0.25-1.57,0.33-2.09
	c-5.24-7.73-10.4399-15.63-17.13-22.2c-7.2899-6.13-14.27-12.62-21.2899-19.06C1202.54,338.56,1196.79,341.63,1190.5601,343.46
	 M1128.63,375.63c-8,5.32-16.39,10-24.38,15.31c0.01,0.74,0.03,2.21,0.04,2.95c11.6899-1.15,22.84-6.55,34.76-5.16
	c1.01-5.16,0.8999-10.44,1.5599-15.64c0.09-1.42,0.36-2.94-0.4-4.23C1136.25,370.95,1132.39,373.22,1128.63,375.63 M1168.89,384.94
	c-0.09,1.76-0.16,3.51-0.2001,5.28c7.29,1.47,14.5701,3.99,20.8701,8.03c2.6399,0.59,4.95,2.06,7.11,3.64
	c3.85,2.6,8.0699,4.75,11.38,8.08c4.5399,4.48,9.6399,8.53,13.0299,14.03c1.61,2.14,2.63,4.86,4.77,6.56
	c2.17,0.25,4.37,0.17,6.5801,0.19c1.0099,1.98,1.95,3.99,2.88,6.02c3.6699-0.76,7.2699-1.84,10.9099-2.79
	c-7.84-8.39-17.48-14.83-26.59-21.74c-8.39-6.43-17.11-12.56-26.72-17.04c-5.8401-2.53-10.63-8.25-17.5701-7.28
	c-0.39-0.34-1.1599-1.03-1.5399-1.37C1172.14,386.05,1170.5,385.5,1168.89,384.94 M1419.8,546.07c0.24,0.86,0.71,2.58,0.9399,3.44
	c-2.28,0.85-4.58,1.63-6.86,2.43c-0.45-0.55-1.34-1.64-1.79-2.18c-2.6699,1.24-5.4,2.47-7.5399,4.53
	c2.49-0.29,3.2999,2.22,4.5699,3.83c1.25,2.16,2.49,4.34,3.63,6.58c1.71,2.28,3.41,4.57,5,6.96c3.3101,4.82,6.88,9.47,10.29,14.23
	c0.2799-0.14,0.84-0.43,1.12-0.57c-0.23-13.41-3.4-26.55-6.42-39.54C1422.01,545.85,1420.54,546,1419.8,546.07 M1313.89,570.9
	c3.58,2.77,7.73,4.59,11.7,6.73c3.14,2.75,7.25,4.29,9.85,7.66c1.3-0.29,2.6201-0.65,3.6101-1.64
	c-1.3501-5.13-3.0601-10.2-5.2301-15.04c-2.34,1.48-4.5,3.2-6.6799,4.88c-2.6801-3.52-5.12-7.24-8-10.61
	C1316.92,565.21,1315.67,568.25,1313.89,570.9 M1440.0699,571.47c0.17,7.3701,1.39,14.65,2.2301,21.95
	c0.9099,6.83,0.4099,14.24,4.4099,20.24c0.6801,0.8,1.39,1.6201,2.13,2.4301c1.3401,1.5099,2.0801,3.45,3.24,5.11
	c2.9601,4.35,5.9701,8.66,8.92,13.03c1.99,2.75,4.28,5.31,5.83,8.36c1.7001,2.27,3.3101,4.62,4.8401,7.04
	c0.6899,0.97,1.3999,1.95,2.12,2.95c3.98,3.9,7.14,8.56,9.76,13.47c5.88-2.98,11.1399-7.02,16.95-10.13
	c-5.52-10.51-12.98-19.83-19.67-29.59c-6.0199-7.53-10.76-15.96-16.9199-23.38c-5.9401-8.31-12.2001-16.38-17.79-24.93
	C1444.38,575.61,1442.83,572.83,1440.0699,571.47 M1305.78,574.7c-1.04,1.5-2.0801,2.99-3.11,4.5c0.51,0.99,1.0399,1.99,1.59,3
	c-1.8201,1.72-3.83,3.2-5.98,4.44c-0.5801-0.57-1.74-1.72-2.3201-2.3c-4.1499,0.29-7.77,2.46-11.08,4.79
	c-0.54,5.21-2.45,10.13-3.5699,15.22c5.25-0.55,10.3799-2.16,15.7-2.18c5.48-0.01,10.97-0.04,16.4399,0.47
	c0.3101-1.13,0.63-2.25,0.9601-3.37c-1.8201-3.12-2.79-7.12-6.67-8.3c0.78-1.6299,1.91-3.14,2.3-4.92
	c0.11-4.15,0.8999-8.71-1.9401-12.18C1307.52,574.08,1306.36,574.49,1305.78,574.7 M1351.6801,582.7
	c2.0199,2.42,0.86,5.55,0.63,8.34c2.0599,3.92,3.59,8.07,5.2799,12.16c3.5601,9.19,8.5901,17.73,11.9701,26.99
	c0.7999,2.59,3.25,4.3,3.7699,7.03c0.8101,4.05,4.11,6.82,6.25,10.17c2.36,3.17,3.26,7.14,5.52,10.38
	c6.41,9.02,12.1901,18.49,18.01,27.9c3.22,4.17,6.59,8.25,9.41,12.73c4.47,6.53,8.59,13.81,15.5599,18.03
	c2.61,1.16,4.3401-1.76,5.76-3.47c5-7.07,11.04-13.32,17.39-19.17c-5.27-7.66-10.3099-15.5-15.9299-22.91
	c-22.53-31.8-44.15-64.25-66.6101-96.08C1363.0699,577.53,1357.73,580.91,1351.6801,582.7 M126.13,603.38
	c-1.15,2.11-2.27,4.24-3.32,6.42c3.23-0.11,6.45-0.15,9.67-0.05C131.13,606.97,128.6,605.11,126.13,603.38 M1717.54,820.96
	c0.2999,2.73,0.2999,5.96,2.63,7.88c3.34,2.94,5.7999,6.69,7.63,10.73c2.1,2.59,3.9299,5.77,7.25,6.96
	c1.95,0.81,4.0599,0.05,6.0599-0.19c0.29-1.6801,0.9301-3.35,0.8101-5.07c-2.3301-7.03-8.14-11.88-12.67-17.45
	c-1.92-2.33-4.65-3.72-7.26-5.08C1720.49,819.47,1719.01,820.21,1717.54,820.96 M1714.16,833.1c0.0399,3.29,0.2799,6.63-0.4701,9.87
	c-0.7699,4.1801-2.9199,7.9901-3.2599,12.28c5.1799-2.91,11.25-2.72,16.86-4.22c0.2999-4.1-2.3501-7.45-4.66-10.53
	C1720.16,837.67,1717.76,834.5,1714.16,833.1 M1289.5699,848.62c-3.48,6.02-8.09,11.6-9.8999,18.42
	c-0.5801,3.31,3.2,2.97,5.38,3.2401c0.7999-0.65,1.61-1.3,2.4399-1.9301c1.54-8.5699,8.61-14.48,11.0601-22.65
	c-1.65-0.97-3.3501-3.57-5.3501-1.9C1291.46,844.92,1290.6801,846.96,1289.5699,848.62 M1709.53,863.08
	c-0.26,2.99-0.98,5.92-1.23,8.92c-0.1101,1.89,0.83,4.77,3.2699,4.09c3.88-1.27,7.2301-3.73,10.9301-5.45
	c2.3199-1.32,5.04-2.21,6.85-4.28c1.63-1.5,0.2101-3.71-0.08-5.47C1722.61,860.65,1715.96,861.39,1709.53,863.08 M1742.21,871.76
	c1.38,8.06,1.8301,16.25,1.62,24.42c-0.0399,2.01,1.9301,3.22,3.0701,4.65c2.89-1.43,7.22-2.35,7.8199-6.11
	c0.87-7.6,0.12-15.28-0.8199-22.84c-2.04-1.71-3.98-4.48-6.97-3.99C1744.72,868.03,1743.67,870.41,1742.21,871.76 M1726.24,877.06
	c-3.5,1.71-7.08,3.4-10.01,6c-0.0699,1.44,0.05,2.87,0.16,4.33c5.23,2.1,10.5,4.15,15.4399,6.92c1.9301-0.48,4.74,0.5,6.03-1.46
	c0.53-5.27,0.33-10.58,0.54-15.86c-1.16-1.16-2.27-2.36-3.5601-3.31C1731.6899,873.95,1728.98,875.69,1726.24,877.06
	 M1295.42,880.33c-5.0701,6.46-9.9601,13.06-14.9301,19.59c0.9,1.46,1.4301,3.61,3.49,3.84c1.46-0.2,3.02-0.7,3.84-2.05
	c3.76-4.94,6.9-10.33,10.9601-15.04c1.51-1.69,2.3199-3.82,3-5.94C1299.8199,880.05,1297.13,878.24,1295.42,880.33 M1265.46,887.26
	c-4.1499,3-5.34,8.49-7.88,12.74c1.6801,1.72,3.41,3.43,5.14,5.13c2.8401-5.25,6.7101-9.85,9.48-15.12
	C1270.36,888.39,1268.16,885.33,1265.46,887.26 M1708.23,897.21c-1.01,3.13-1.72,6.35-3,9.4c4.39,1.78,9.21,0.98,13.8301,1.03
	c3.1899-0.15,6.48,0.19,9.6399-0.55c1.99-0.75,1.99-4.05,0-4.79c-4.5-2.69-9.4099-4.63-14.1599-6.81
	C1712.41,894.31,1709.4399,895.19,1708.23,897.21 M1783.95,910.22c-0.26,1.65-0.5,3.32-0.9099,4.95
	c-1.0901,6.85-3.92,13.19-6.23,19.68c-1.6201,4.29-4.3601,8.03-7.05,11.71c-2.24,4.05-4.28,8.28-7.23,11.88
	c-6.4,7.13-12.9601,14.3-21.0701,19.52c3.7101,4,8.0901,10.54,14.3301,8.85c5.3199-2.99,8.1699-8.82,11.2899-13.83
	c5.3501-8.52,8.79-18.02,12.8101-27.18c2.64-11.78,5.29-23.68,5.7-35.78L1783.95,910.22 M1705.84,915.72
	c2.1901,5.78,5.42,11.07,8.0701,16.64c1.4199,0.02,2.86,0.06,4.3199,0.11c3.92-3.71,7.53-7.8799,10.24-12.5699
	c-0.0499-3.91-4.78-4.03-7.62-4.21C1715.89,915.5,1710.54,913.61,1705.84,915.72 M227.41,924.95c-1.55,5.6-0.45,11.85,3.11,16.48
	c4.97,6.31,10.14,12.51,16.14,17.89c1.47,1.39,3.44,1.96,5.34,2.53c-4.21-13-9.07-25.8199-12.47-39.09
	c-0.57-3.25-2.87-6.69-6.59-6.36C229.24,917.47,228.24,921.67,227.41,924.95 M1534.86,923.04c-2.86,0.79-5.13,3.92-4.16,6.9
	c1.9,8.03,7.4401,14.47,10.3,22.13c4.22,8.07,9.67,15.47,15.27,22.64c6.9199,7.73,13.83,15.62,22.35,21.67
	c11.13,8.86,23.38,16.48,36.83,21.26c12.3401,6.17,26.12,8.61,39.75,9.96c14.3401,0.65,28.9401,0.5601,42.8501-3.4
	c5.9299-1.83,12.01-3.41,17.5599-6.2599c2.23-1.07,1.22-3.81,1.51-5.74c-4.91-5.22-10.83-9.29-16.1899-13.98
	c-1.37-1.29-2.9601-2.27-4.78-2.65c-3.17,1.22-6.6,1.07-9.91,1.28c-11.95,0.81-24.05-0.25-35.58-3.5099
	c-35.4301-9.11-65.64-34.78-81.87-67.38c-0.54-0.16-1.63-0.5-2.17-0.67c-0.14-0.69-0.42-2.07-0.5599-2.7599
	c-2.1801,2.5099-3.79,6.1899-7.78,5.62c-2.13-1.63-4.79-1.53-7.25-2.08c-2.78-0.9-3.66-3.98-4.5-6.44
	C1542.54,920.43,1538.67,921.69,1534.86,923.04 M1734.8199,920.42c-3.1399,6.8-8.95,11.76-14.1499,16.96
	c0.01,2.18-0.05,4.37,0.1699,6.57c0.0901,3.42,4.8301,5.44,7.4701,3.4c6.48-4.52,11.5099-10.85,15.48-17.61
	c1.75-2.8,0.08-6.24-2.11-8.22C1739.9399,919.47,1737.09,920.54,1734.8199,920.42 M1620.37,937.07c0,1.68-0.6801,3.62,0.5,5.1
	c3.14,4.31,7.79,7.33,12.6,9.51c4.7101,2.17,9.1901,5.34,14.5801,5.49c0.4199-1.54,0.84-3.08,1.24-4.61
	c-3.23-3.51-6.9701-6.48-10.88-9.15c-2.77-0.6-5.73-0.39-8.28-1.77C1626.78,940.29,1624.1,937.35,1620.37,937.07 M321.96,980.13
	c3.67,5.94,10.87,7.64,17.33,8.37c5.28-1.75,10.91-2.47,16.47-2.1c1.92-2.9,5.79-2.8,8.69-4.07c-1.93-0.71-3.93-0.4-5.87,0.05
	c-3.59,1.01-7.36-1.71-10.79,0.31c-2.84,1.58-5.98,0.16-8.92-0.21c-2.96-0.52-5.9,0.54-8.86,0.3
	C327.31,981.91,324.86,980.26,321.96,980.13z"/>
</svg>
